<svg version="1.0" xmlns="http://www.w3.org/2000/svg" preserveAspectRatio="xMidYMid meet" style="scroll-behavior: auto !important;" viewBox="242.08 198.18 806.3 889.87"><metadata>Created by potrace 1.15, written by Peter Selinger 2001-2017</metadata><g transform="translate(0.000000,1280.000000) scale(0.100000,-0.100000)" fill="#dcdcdc" stroke="none"><path d="M6685 10813 c-619 -32 -1290 -162 -1885 -367 -532 -183 -1158 -495 -1543 -768 -336 -239 -577 -494 -710 -750 -141 -272 -165 -582 -66 -838 32 -84 172 -316 219 -364 l28 -29 28 44 c245 388 436 625 710 880 664 620 1624 1101 2549 1279 141 27 336 55 495 72 166 17 713 17 840 0 464 -63 825 -216 1079 -458 99 -94 137 -156 173 -279 20 -70 23 -102 23 -260 0 -188 -9 -262 -51 -425 -134 -521 -509 -931 -1129 -1235 -227 -111 -473 -209 -530 -209 -22 0 -87 10 -145 23 -549 119 -976 -130 -1163 -679 -29 -83 -77 -266 -77 -291 0 -10 17 -21 48 -31 l47 -15 0 -53 c0 -52 0 -53 40 -69 31 -12 77 -15 200 -15 153 0 219 9 426 57 6 1 52 -92 102 -208 274 -623 560 -1186 815 -1600 411 -670 766 -1088 1124 -1322 540 -354 1083 -252 1681 316 343 326 507 670 464 971 -10 73 -20 89 -46 73 -18 -11 -20 -8 -31 60 -14 86 -17 97 -28 97 -5 0 -45 -42 -90 -93 -188 -217 -383 -380 -567 -472 -245 -124 -460 -128 -683 -16 -368 187 -768 675 -1207 1476 -158 290 -545 1098 -545 1140 0 9 12 21 28 27 154 66 580 271 747 360 781 414 1222 772 1471 1194 169 287 254 615 254 976 0 295 -48 504 -173 748 -102 200 -184 319 -306 441 -354 353 -932 553 -1766 609 -135 9 -697 11 -850 3z"></path><path d="M5185 9255 c-112 -21 -260 -61 -416 -111 -196 -63 -389 -134 -389 -144 0 -4 15 -31 34 -59 70 -103 81 -148 80 -316 -1 -171 -11 -243 -109 -735 -116 -587 -553 -2791 -695 -3505 -77 -385 -164 -828 -195 -985 -31 -157 -85 -422 -120 -590 -85 -405 -101 -518 -85 -588 8 -36 23 -67 45 -91 18 -20 41 -56 50 -79 23 -56 73 -98 142 -118 131 -38 442 2 707 91 114 38 368 143 384 159 3 3 -5 51 -17 106 -36 156 -28 317 30 635 11 61 267 1350 569 2865 576 2887 580 2908 580 2973 0 74 -21 162 -50 212 -16 28 -41 75 -55 105 -40 82 -80 126 -143 157 -51 25 -69 28 -167 30 -60 1 -141 -4 -180 -12z"></path></g></svg>